<?xml version="1.0" encoding="UTF-8"?>
<svg version="1.1" xmlns="http://www.w3.org/2000/svg" width="1042" height="1042">
<path d="M0 0 C5.31589146 1.61375276 9.21955332 5.03845422 13.5 8.4375 C14.29664063 9.06422607 15.09328125 9.69095215 15.9140625 10.33666992 C25.42914415 17.86020062 34.65373937 25.67760251 43.625 33.84375 C45.17622694 35.25210078 46.73835873 36.64855835 48.3125 38.03125 C58.09308845 46.65361087 67.74066907 55.83035921 76.15234375 65.8125 C77.70400871 67.64956634 79.28181055 69.45269421 80.87890625 71.25 C88.20007604 79.52284467 95.04050678 88.03582093 101.52929688 96.97607422 C102.49654737 98.30716762 103.46907069 99.63444817 104.44726562 100.95751953 C119.03254986 120.68909993 131.06732485 142.06768078 142 164 C142.56557617 165.12728516 142.56557617 165.12728516 143.14257812 166.27734375 C165.13345707 210.42109707 177.64219567 259.36121948 183.25 308.1875 C183.33326538 308.91135895 183.41653076 309.6352179 183.50231934 310.38101196 C185.55720061 328.50689344 186.23984312 346.51615874 186.25 364.75 C186.25101212 366.39473297 186.25101212 366.39473297 186.25204468 368.07269287 C186.20567477 415.84756549 179.30858786 461.96165751 165.83203125 507.84765625 C165.53176025 508.89759766 165.23148926 509.94753906 164.92211914 511.02929688 C164 514 164 514 162.90405273 516.62695312 C161.45534395 520.27123174 160.65052368 522.74877833 161.7253418 526.59692383 C163.13606887 529.63764372 164.73846029 532.48528048 166.4375 535.375 C167.39997665 537.1143435 168.36213828 538.85387477 169.31710815 540.59735107 C170.02242645 541.88444036 170.73131718 543.1695771 171.44338989 544.45294189 C176.69799922 553.96969694 181.42792966 563.7596297 186.25 573.5 C192.29066795 585.68006955 198.41155578 597.80381413 204.78759766 609.81225586 C214 627.17882635 214 627.17882635 214 630 C203.98129551 629.23197723 194.16421363 627.3717677 184.28125 625.62109375 C182.37225673 625.28585264 180.46319799 624.95098417 178.55407715 624.61647034 C173.55670303 623.7400427 168.56005259 622.85956183 163.56359863 621.97790527 C155.53912857 620.56242418 147.51374002 619.1521765 139.48802185 617.74379158 C136.6857735 617.25128265 133.883945 616.75643661 131.08215332 616.26133728 C129.3757454 615.96117905 127.66932518 615.66109074 125.96289062 615.36108398 C125.18162811 615.22239395 124.4003656 615.08370392 123.59542847 614.94081116 C119.82041029 614.24745426 119.82041029 614.24745426 116 614 C114.80530258 615.61743651 113.69723216 617.29890595 112.625 619 C104.87878558 630.90752017 96.14797318 642.13967434 87 653 C86.57315918 653.51175781 86.14631836 654.02351562 85.70654297 654.55078125 C36.19650381 713.84254662 -28.37250636 756.84480404 -100 785 C-100.94198242 785.37463379 -101.88396484 785.74926758 -102.85449219 786.13525391 C-192.15016995 821.3609276 -290.33865739 824.11859862 -442.6237793 778.19165039 C-469.25517952 766.49744977 -495.36626953 753.46139955 -520.11523438 738.16308594 C-522.39777392 736.75453433 -524.69602772 735.37316748 -527 734 C-526.61529538 728.56070407 -523.40641467 725.01274693 -520.25 720.8125 C-519.05839853 719.19545634 -517.86699784 717.5782647 -516.67578125 715.9609375 C-516.06428223 715.1369043 -515.4527832 714.31287109 -514.82275391 713.46386719 C-511.99682201 709.64397639 -509.21665284 705.79148893 -506.4375 701.9375 C-505.89963867 701.19346924 -505.36177734 700.44943848 -504.80761719 699.68286133 C-500.66745077 693.94874328 -496.5836285 688.17637489 -492.51708984 682.38989258 C-488.91154885 677.26756632 -485.24589608 672.19152866 -481.5625 667.125 C-477.07451931 660.94841239 -472.71858153 654.69654921 -468.4375 648.375 C-463.97553076 641.7891414 -459.3421949 635.38315223 -454.51928711 629.05810547 C-450.67500887 623.98327975 -447.0642576 618.77442396 -443.5 613.5 C-439.01927941 606.86938497 -434.37152525 600.42123496 -429.51953125 594.05859375 C-425.67534619 588.98346229 -422.06449113 583.77449423 -418.5 578.5 C-413.98915767 571.82794988 -409.31936953 565.32544059 -404.44702148 558.91357422 C-400.36233512 553.5250361 -396.44955488 548.0293411 -392.56787109 542.4934082 C-387.33246556 535.03087509 -381.98957284 527.64784525 -376.64111328 520.26611328 C-373.92351827 516.513552 -371.21205527 512.75656581 -368.5 509 C-367.41669638 507.49997854 -366.33336304 505.99997854 -365.25 504.5 C-364.71375 503.7575 -364.1775 503.015 -363.625 502.25 C-293.75 405.5 -293.75 405.5 -292.12280273 403.24707031 C-291.0466508 401.75693907 -289.97064015 400.26670578 -288.89477539 398.77636719 C-286.07775591 394.87449825 -283.25782345 390.97477897 -280.43359375 387.078125 C-279.84835937 386.26988281 -279.263125 385.46164062 -278.66015625 384.62890625 C-277.54518372 383.08918228 -276.42935437 381.55007825 -275.3125 380.01171875 C-273.04507052 376.87885817 -270.82541219 373.75064993 -268.75390625 370.484375 C-268.17511719 369.66453125 -267.59632813 368.8446875 -267 368 C-266.34 368 -265.68 368 -265 368 C-264.65648509 394.04153865 -264.32371651 420.08320774 -264 446.125 C-263.98810292 447.08105589 -263.97620584 448.03711179 -263.96394825 449.02213907 C-262.78769911 543.64123134 -262.78769911 543.64123134 -262.875 588.4375 C-262.87671204 589.32291725 -262.87842407 590.2083345 -262.88018799 591.12058258 C-262.90103836 601.08050098 -262.93739712 611.04025019 -263 621 C-258.09806111 620.61118099 -253.19660317 620.21687439 -248.29548645 619.81782532 C-246.633677 619.68325711 -244.97175257 619.55010012 -243.30970764 619.41847229 C-215.24036306 617.19244148 -188.15202187 611.63187027 -162 601 C-160.89760986 600.55599854 -160.89760986 600.55599854 -159.77294922 600.10302734 C-130.87565304 588.30834262 -105.52342581 570.4518267 -83 549 C-82.40106934 548.42975098 -81.80213867 547.85950195 -81.18505859 547.27197266 C-72.84050203 539.26765866 -65.1937545 531.04706309 -58.30615234 521.75488281 C-56.98945774 519.98583594 -55.64751565 518.23843858 -54.30078125 516.4921875 C-46.68474413 506.50345142 -40.22326051 495.90001559 -34 485 C-33.58476074 484.27554687 -33.16952148 483.55109375 -32.74169922 482.8046875 C-27.85226204 474.18410325 -23.67457987 465.31361188 -19.8125 456.1875 C-19.19532104 454.76268311 -19.19532104 454.76268311 -18.56567383 453.30908203 C-18.19982178 452.41688965 -17.83396973 451.52469727 -17.45703125 450.60546875 C-17.12678955 449.81293701 -16.79654785 449.02040527 -16.45629883 448.20385742 C-15.79588493 445.97793024 -15.79588493 445.97793024 -16.77490234 443.83544922 C-18.44283176 441.33654659 -20.44836554 439.78934764 -22.8125 437.9375 C-24.29169922 436.75994141 -24.29169922 436.75994141 -25.80078125 435.55859375 C-26.32365723 435.14335449 -26.8465332 434.72811523 -27.38525391 434.30029297 C-30.13475066 432.08622891 -32.81429939 429.79066232 -35.5 427.5 C-39.46839249 424.12642901 -43.46019315 420.78821488 -47.5 417.5 C-52.1045358 413.75212202 -56.64019191 409.93016556 -61.1640625 406.0859375 C-65.46013044 402.44140593 -69.81368341 398.8721266 -74.18359375 395.31640625 C-77.33785192 392.72212734 -80.4520298 390.08393735 -83.5625 387.4375 C-88.10092627 383.57771691 -92.70213537 379.81788304 -97.375 376.12109375 C-101.21560735 373.01774585 -104.96661479 369.81037564 -108.7109375 366.59179688 C-111.67031138 364.02770081 -111.67031138 364.02770081 -115 362 C-114.67 361.01 -114.34 360.02 -114 359 C-111.24185927 357.95331755 -108.59151343 357.11304056 -105.75512695 356.33618164 C-104.8898941 356.0885759 -104.02466125 355.84097015 -103.13320923 355.58586121 C-100.25480573 354.76535948 -97.37171165 353.96279669 -94.48828125 353.16015625 C-92.48269577 352.59219721 -90.4774252 352.02312506 -88.47245789 351.45298767 C-83.17246274 349.94909256 -77.86834189 348.46028576 -72.56323242 346.97454834 C-67.21608083 345.4743139 -61.87283505 343.96030972 -56.52929688 342.44726562 C-49.56796328 340.47743357 -42.60549976 338.51175173 -35.6403532 336.55544186 C-33.01766792 335.81868258 -30.39534499 335.08064668 -27.77310181 334.34231567 C-24.71848473 333.48226735 -21.66260603 332.62697557 -18.6055603 331.77560425 C-17.31537513 331.41359439 -16.02522171 331.05147138 -14.73510742 330.68920898 C-13.63897629 330.38345444 -12.54284515 330.07769989 -11.41349792 329.76268005 C-9.07354972 329.22727571 -9.07354972 329.22727571 -8 328 C-15.2186341 280.83182047 -39.354467 234.30106126 -71.69140625 199.4921875 C-73.71940621 197.30290836 -75.68211183 195.07700005 -77.625 192.8125 C-85.98432265 183.21983466 -95.54419905 175.14790011 -105.375 167.125 C-106.08978516 166.54081299 -106.80457031 165.95662598 -107.54101562 165.35473633 C-108.21583984 164.80712646 -108.89066406 164.2595166 -109.5859375 163.6953125 C-110.1948584 163.20047363 -110.8037793 162.70563477 -111.43115234 162.19580078 C-113.00233487 160.92111294 -113.00233487 160.92111294 -115 160 C-113.43981366 155.20995421 -110.73160237 151.73833903 -107.6875 147.8125 C-106.59494317 146.37998129 -105.50384901 144.9463461 -104.4140625 143.51171875 C-103.84977539 142.76970215 -103.28548828 142.02768555 -102.70410156 141.26318359 C-99.93725872 137.58859432 -97.24791365 133.85931422 -94.5625 130.125 C-94.02254395 129.37508789 -93.48258789 128.62517578 -92.92626953 127.85253906 C-91.28317431 125.56908052 -89.64155655 123.28456483 -88 121 C-80.80143369 110.99303418 -73.55746954 101.02308463 -66.23291016 91.10791016 C-60.63567826 83.5233116 -55.11591373 75.8841167 -49.60888672 68.23388672 C-46.36853805 63.73476831 -43.11972298 59.24175881 -39.87255859 54.74755859 C-37.17401978 51.012055 -34.47742047 47.2751852 -31.78515625 43.53515625 C-24.98055606 34.08793279 -18.10765258 24.69389571 -11.19140625 15.328125 C-7.43406573 10.23818104 -3.70876129 5.12546203 0 0 Z " fill="#2CA3DB" transform="translate(726,113)"/>
<path d="M0 0 C201.96 0 403.92 0 612 0 C610.18139128 3.63721744 608.12058627 6.78907943 605.75 10.0625 C605.31526367 10.66682861 604.88052734 11.27115723 604.43261719 11.89379883 C598.95313479 19.48775048 593.38122777 27.0144034 587.81445312 34.54443359 C584.87205315 38.52649212 581.9362956 42.51343938 579 46.5 C577.83336666 48.08335789 576.66669996 49.6666912 575.5 51.25 C574.63375 52.425625 574.63375 52.425625 573.75 53.625 C558 75 542.25 96.375 526.5 117.75 C525.9217749 118.53479736 525.3435498 119.31959473 524.74780273 120.12817383 C523.58870487 121.701108 522.42936499 123.27386385 521.26977539 124.84643555 C518.2352304 128.96239755 515.20576764 133.08197509 512.18359375 137.20703125 C511.55646484 138.06167969 510.92933594 138.91632813 510.28320312 139.796875 C509.08892557 141.42463108 507.89611794 143.0534671 506.70507812 144.68359375 C505.89006836 145.79347656 505.89006836 145.79347656 505.05859375 146.92578125 C504.58736084 147.56942627 504.11612793 148.21307129 503.63061523 148.8762207 C503.09251221 149.57706787 502.55440918 150.27791504 502 151 C501.3330779 152.01892145 500.6661558 153.0378429 499.97902393 154.08764076 C498.37901626 155.98212015 497.44046509 156.87609462 495.03696382 157.55221343 C492.57498255 157.75777455 490.17525127 157.77078494 487.70500183 157.7215271 C486.76559622 157.72665365 485.8261906 157.7317802 484.85831815 157.7370621 C481.70847789 157.7469504 478.56055242 157.71393743 475.41088867 157.68115234 C473.15402268 157.67946004 470.89715338 157.68040962 468.64028931 157.68380737 C462.510327 157.68553111 456.38106702 157.6502188 450.25126815 157.60836363 C443.84644731 157.57089321 437.44161093 157.56733416 431.03669739 157.56021118 C420.28546674 157.54367249 409.53454357 157.50617825 398.78344727 157.45263672 C387.71054371 157.39754994 376.63771021 157.35508567 365.56469727 157.32958984 C364.8819889 157.3280135 364.19928053 157.32643716 363.49588402 157.32481305 C360.07088532 157.31698274 356.64588612 157.30940052 353.22088659 157.30194163 C324.81374681 157.23975635 296.40688724 157.13364426 268 157 C268.00515373 157.60826818 268.01030746 158.21653637 268.01561737 158.84323692 C268.08488438 167.04912445 268.1523013 175.25502672 268.21875 183.4609375 C268.22438029 184.15520057 268.23001057 184.84946363 268.23581147 185.56476498 C268.38280207 203.73301038 268.51414225 221.90126634 268.6159668 240.06982422 C268.62299443 241.31521308 268.62299443 241.31521308 268.63016403 242.58576131 C268.67391342 250.34143679 268.71727714 258.09711417 268.75873375 265.85280228 C268.8725621 287.04456254 269.0316405 308.23492093 269.27305102 329.42563415 C269.45313974 345.25519514 269.59118228 361.08467533 269.69092751 376.91494942 C269.75477408 386.7801503 269.85513097 396.64363033 270.00182277 406.50795174 C270.09948122 413.30439829 270.15206381 420.10029679 270.17053479 426.89741516 C270.18258045 430.8249941 270.21388469 434.74980806 270.29918861 438.67653656 C270.90637259 467.6935343 270.90637259 467.6935343 259.93008423 479.91893005 C259.42301563 480.44692389 258.91594704 480.97491772 258.39351273 481.51891136 C256.5152406 483.51522431 254.98196543 485.70262692 253.44140625 487.96484375 C252.48273629 489.28976161 251.52312624 490.61399984 250.5625 491.9375 C249.47002588 493.44659561 248.37757876 494.95571078 247.28515625 496.46484375 C246.74262207 497.21362793 246.20008789 497.96241211 245.64111328 498.73388672 C242.92351827 502.486448 240.21205527 506.24343419 237.5 510 C236.41669638 511.50002146 235.33336304 513.00002146 234.25 514.5 C233.71375 515.2425 233.1775 515.985 232.625 516.75 C227.75 523.5 227.75 523.5 226.12426758 525.75097656 C225.04332809 527.24768701 223.96243599 528.74443168 222.8815918 530.24121094 C220.1370246 534.04182637 217.39158034 537.84180298 214.64453125 541.640625 C209.74654666 548.41540742 204.85255912 555.19258102 200 562 C193.48260504 571.14293615 186.89322028 580.23392586 180.31347656 589.33203125 C174.85849271 596.87582066 169.40372803 604.41937297 164 612 C158.59201881 619.58659358 153.13272873 627.13590141 147.67333984 634.68554688 C144.94736863 638.45593017 142.22375451 642.22801519 139.5 646 C136.2160604 650.54775578 132.93154955 655.09509374 129.64453125 659.640625 C124.34593038 666.96953087 119.05671429 674.30445305 113.81005859 681.6706543 C110.93505862 685.70294886 108.03555845 689.71699136 105.12963867 693.72705078 C99.31677049 701.74983206 93.59202595 709.82148143 88 718 C87.01 717.67 86.02 717.34 85 717 C85 532.2 85 347.4 85 157 C56.95 157 28.9 157 0 157 C0 105.19 0 53.38 0 0 Z " fill="#F37028" transform="translate(107,113)"/>
<path d="M0 0 C2.39575484 2.1839561 3.80692594 4.25472768 5.2331543 7.1574707 C5.85476692 8.41071892 5.85476692 8.41071892 6.48893738 9.68928528 C6.92958023 10.59232895 7.37022308 11.49537262 7.82421875 12.42578125 C8.28931351 13.36495895 8.75440826 14.30413666 9.2335968 15.27177429 C10.72397568 18.28255243 12.20643151 21.29713223 13.6875 24.3125 C20.88125778 39.16320821 20.88125778 39.16320821 28.80859375 53.625 C35.27042083 64.66832442 40.72979564 76.2810792 46.409729 87.74041748 C49.25480924 93.4793302 52.10625619 99.21507662 54.9609375 104.94921875 C55.26638363 105.56306364 55.57182976 106.17690853 55.88653183 106.80935478 C60.77513195 116.6269576 65.80517118 126.3609746 70.96438599 136.03883362 C79 151.25606306 79 151.25606306 79 154 C69.06660078 153.23007341 59.3294512 151.41538147 49.52734375 149.69140625 C47.63510018 149.36106726 45.74281116 149.03098851 43.85047913 148.70115662 C39.89886322 148.01160297 35.9476847 147.31961209 31.99682617 146.62573242 C26.95192492 145.73980847 21.90616122 144.85891787 16.86008358 143.97972202 C12.95715383 143.29931443 9.05459954 142.61677368 5.15216255 141.93354607 C3.29245744 141.60810823 1.43266038 141.2831953 -0.42723274 140.95883369 C-3.03266779 140.50400858 -5.63760711 140.04644178 -8.24243164 139.58813477 C-8.99852722 139.45663528 -9.7546228 139.3251358 -10.53363037 139.18965149 C-15.07038737 138.38787587 -19.56384018 137.45997667 -24.05520058 136.43349934 C-26.49970414 135.88861504 -28.9524215 135.46211762 -31.42578125 135.0703125 C-32.37638428 134.91691406 -33.3269873 134.76351562 -34.30639648 134.60546875 C-35.29841064 134.44691406 -36.2904248 134.28835938 -37.3125 134.125 C-44.88787771 132.89189331 -52.42287099 131.56102106 -59.9375 130 C-71.55625342 127.59165779 -83.27427968 125.80083902 -95 124 C-93.42924274 119.81000283 -91.58263732 117.07107538 -88.625 113.6875 C-84.5927353 108.99060071 -80.80671562 104.16344184 -77.125 99.1875 C-73.20132064 93.89597281 -69.20179291 88.68724155 -65.0625 83.5625 C-60.78894068 78.27126003 -56.61441411 72.91592494 -52.5 67.5 C-47.85418421 61.38661062 -43.11873556 55.35737422 -38.30419922 49.3762207 C-34.36333207 44.47386519 -30.51742238 39.50749903 -26.6953125 34.51171875 C-23.48746522 30.32254746 -20.24254182 26.16233473 -17 22 C-11.30558493 14.68778304 -5.63946041 7.354688 0 0 Z " fill="#2DA3DB" transform="translate(861,589)"/>
<path d="M0 0 C-0.41916893 9.32650873 -2.39766064 18.24008846 -4.40731812 27.32147217 C-5.22416568 31.01307975 -6.02644508 34.70780987 -6.82951355 38.4024353 C-7.25020937 40.33766678 -7.67161411 42.27274427 -8.09370422 44.20767212 C-10.35430418 54.58373471 -12.52322995 64.97850083 -14.6875 75.375 C-17.40742132 88.41995083 -20.15441812 101.45806415 -22.96020508 114.48486328 C-25.3614407 125.64519998 -27.68783439 136.82091203 -30 148 C-34.08006684 146.09685015 -37.20610735 143.39165575 -40.5625 140.4375 C-41.82206003 139.34276361 -43.08248534 138.24902202 -44.34375 137.15625 C-44.96507812 136.61742187 -45.58640625 136.07859375 -46.2265625 135.5234375 C-48.63774159 133.4521603 -51.09467909 131.44078991 -53.5625 129.4375 C-57.58358091 126.17221697 -61.55345162 122.85442156 -65.5 119.5 C-69.46903543 116.12716411 -73.46017021 112.78823355 -77.5 109.5 C-81.53983452 106.2117626 -85.53083277 102.87268539 -89.5 99.5 C-95.27542544 94.59454156 -101.11992099 89.77971335 -107 85 C-113.44532718 79.76081592 -119.83422912 74.46460425 -126.16357422 69.08642578 C-129.58020732 66.18780161 -133.02486997 63.32859421 -136.5 60.5 C-138.33454008 59.00147612 -140.16778391 57.50136448 -142 56 C-142.57411621 55.52965332 -143.14823242 55.05930664 -143.73974609 54.57470703 C-145.56115906 53.0771439 -147.37505414 51.57089721 -149.1875 50.0625 C-149.765 49.58941406 -150.3425 49.11632812 -150.9375 48.62890625 C-152.32990319 47.46348849 -153.67040187 46.23658967 -155 45 C-155 44.34 -155 43.68 -155 43 C-154.4237085 42.8548999 -153.84741699 42.7097998 -153.25366211 42.56030273 C-142.3229533 39.79394865 -131.45557477 36.91120631 -120.6875 33.5625 C-112.50369628 31.01756661 -104.28564032 28.69054101 -96 26.5 C-88.20044445 24.43379099 -80.45328136 22.2753031 -72.75 19.875 C-60.66575666 16.11888991 -48.48915729 12.69189135 -36.3125 9.25 C-35.30191528 8.96364685 -34.29133057 8.6772937 -33.25012207 8.38226318 C-3.64933517 0 -3.64933517 0 0 0 Z " fill="#FDFEFE" transform="translate(780,432)"/>
<path d="M0 0 C2.39575484 2.1839561 3.80692594 4.25472768 5.2331543 7.1574707 C5.85476692 8.41071892 5.85476692 8.41071892 6.48893738 9.68928528 C6.92958023 10.59232895 7.37022308 11.49537262 7.82421875 12.42578125 C8.28931351 13.36495895 8.75440826 14.30413666 9.2335968 15.27177429 C10.72397568 18.28255243 12.20643151 21.29713223 13.6875 24.3125 C20.88125778 39.16320821 20.88125778 39.16320821 28.80859375 53.625 C35.27042083 64.66832442 40.72979564 76.2810792 46.409729 87.74041748 C49.25480924 93.4793302 52.10625619 99.21507662 54.9609375 104.94921875 C55.26638363 105.56306364 55.57182976 106.17690853 55.88653183 106.80935478 C60.77513195 116.6269576 65.80517118 126.3609746 70.96438599 136.03883362 C79 151.25606306 79 151.25606306 79 154 C69.06660078 153.23007341 59.3294512 151.41538147 49.52734375 149.69140625 C47.63510018 149.36106726 45.74281116 149.03098851 43.85047913 148.70115662 C39.89886322 148.01160297 35.9476847 147.31961209 31.99682617 146.62573242 C26.95192492 145.73980847 21.90616122 144.85891787 16.86008358 143.97972202 C12.95715383 143.29931443 9.05459954 142.61677368 5.15216255 141.93354607 C3.29245744 141.60810823 1.43266038 141.2831953 -0.42723274 140.95883369 C-3.03266779 140.50400858 -5.63760711 140.04644178 -8.24243164 139.58813477 C-8.99852722 139.45663528 -9.7546228 139.3251358 -10.53363037 139.18965149 C-15.07038737 138.38787587 -19.56384018 137.45997667 -24.05520058 136.43349934 C-26.49970414 135.88861504 -28.9524215 135.46211762 -31.42578125 135.0703125 C-32.37638428 134.91691406 -33.3269873 134.76351562 -34.30639648 134.60546875 C-35.29841064 134.44691406 -36.2904248 134.28835938 -37.3125 134.125 C-44.88787771 132.89189331 -52.42287099 131.56102106 -59.9375 130 C-71.55625342 127.59165779 -83.27427968 125.80083902 -95 124 C-93.42924274 119.81000283 -91.58263732 117.07107538 -88.625 113.6875 C-84.5927353 108.99060071 -80.80671562 104.16344184 -77.125 99.1875 C-73.20132064 93.89597281 -69.20179291 88.68724155 -65.0625 83.5625 C-60.78894068 78.27126003 -56.61441411 72.91592494 -52.5 67.5 C-47.85418421 61.38661062 -43.11873556 55.35737422 -38.30419922 49.3762207 C-34.36333207 44.47386519 -30.51742238 39.50749903 -26.6953125 34.51171875 C-23.48746522 30.32254746 -20.24254182 26.16233473 -17 22 C-11.30558493 14.68778304 -5.63946041 7.354688 0 0 Z M-1 12 C-6.72364132 18.50591576 -11.94210595 25.47146084 -17.203125 32.3515625 C-20.42607708 36.56385328 -23.68065593 40.75138737 -26.9375 44.9375 C-27.53780029 45.70908447 -28.13810059 46.48066895 -28.7565918 47.27563477 C-32.76401795 52.42214506 -36.78830857 57.55508082 -40.82275391 62.68041992 C-46.91601334 70.42693214 -52.95390314 78.21666883 -59 86 C-61.39539825 89.08367171 -63.79127359 92.16697179 -66.1875 95.25 C-66.76234131 95.99016357 -67.33718262 96.73032715 -67.92944336 97.49291992 C-70.71414296 101.07517334 -73.5080884 104.64941755 -76.32421875 108.20703125 C-77.0982605 109.18591309 -77.0982605 109.18591309 -77.88793945 110.18457031 C-78.85696138 111.40829658 -79.82805363 112.63038718 -80.80151367 113.85058594 C-83.02251608 116.16712652 -83.02251608 116.16712652 -84 119 C-74.63143001 120.95363545 -65.23731904 122.68710535 -55.8059082 124.30761719 C-49.81397699 125.33718828 -43.82524887 126.38247415 -37.83984375 127.44921875 C-23.59059725 129.98649519 -9.34456411 132.49863731 4.96044922 134.70703125 C10.22067859 135.52465486 15.43591122 136.45793627 20.65087891 137.52685547 C24.15156622 138.2319409 27.66806622 138.83445929 31.1875 139.4375 C36.75473344 140.39854375 42.28403634 141.46141165 47.8125 142.625 C54.19652039 143.93051166 60.49718738 144.6488239 67 145 C65.72639227 140.90666472 64.19980589 137.21067273 62.19921875 133.421875 C61.36124756 131.82339722 61.36124756 131.82339722 60.50634766 130.19262695 C59.90612793 129.05656006 59.3059082 127.92049316 58.6875 126.75 C57.41490832 124.32320983 56.14646 121.89426852 54.87890625 119.46484375 C54.55597595 118.84647141 54.23304565 118.22809906 53.90032959 117.59098816 C50.57017437 111.20070855 47.33824961 104.76227675 44.125 98.3125 C43.58133789 97.22187256 43.03767578 96.13124512 42.47753906 95.00756836 C40.25764765 90.54904796 38.0433465 86.08777861 35.83203125 81.625 C31.62201982 73.14431721 27.2623321 64.74948065 22.86108398 56.36645508 C18.01926221 47.10889184 13.35252206 37.76699401 8.72021484 28.40332031 C5.95867447 22.83872465 3.16919293 17.34412925 0 12 C-0.33 12 -0.66 12 -1 12 Z " fill="#F8FBFD" transform="translate(861,589)"/>
</svg>
